# xmcd
#
# Track frame offsets: 
#        150
#        12254
#        22925
#        35099
#        50845
#        63241
#        76775
#        86616
#        101268
#        109296
#        123290
#        135551
#        148919
#        161039
#        171010
#        191137
#        201993
#        213930
#        225693
#        241420
#        253828
#
# Disc length: 3529 seconds
#
# Revision: 1
# Processed by: cddbd v1.5.2PL0 Copyright (c) Steve Scherf et al.
# Submitted via: ExactAudioCopy v1.1
#
DISCID=270dc715
DTITLE=The Spencer Davis Group - Their First Lp
DYEAR=1965
DGENRE=R&B
TTITLE0=My Babe (mono)
TTITLE1=Dimples (mono)
TTITLE2=Searchin' (mono)
TTITLE3=Every Little Bit Hurts (mono)
TTITLE4=I'm Blue (The Gong Gong Song) (mono)
TTITLE5=Sittin' And Thinkin' (mono)
TTITLE6=I Can't Stand It (mono)
TTITLE7=Here Right Now (mono)
TTITLE8=Jump Back (mono)
TTITLE9=It's Gonna Work Out Fine (mono)
TTITLE10=Midnight Train (mono)
TTITLE11=It Hurts Me So (mono)
TTITLE12=She Put The Hurt On Me (mono)
TTITLE13=I'm Getting Better (mono)
TTITLE14=I'll Drown In My Own Tears (mono)
TTITLE15=Goodbye Stevie (mono)
TTITLE16=My Babe (US version) (mono)
TTITLE17=Searchin' (US version) (mono)
TTITLE18=Every Little Bit Hurts (US version) (mono)
TTITLE19=Midnight Train (US version) (mono)
TTITLE20=Incense (Anglos) (mono)
EXTD=
EXTT0=
EXTT1=
EXTT2=
EXTT3=
EXTT4=
EXTT5=
EXTT6=
EXTT7=
EXTT8=
EXTT9=
EXTT10=
EXTT11=
EXTT12=
EXTT13=
EXTT14=
EXTT15=
EXTT16=
EXTT17=
EXTT18=
EXTT19=
EXTT20=
PLAYORDER=
